<?xml version="1.0" standalone="no"?>
<!DOCTYPE svg PUBLIC "-//W3C//DTD SVG 20010904//EN"
 "http://www.w3.org/TR/2001/REC-SVG-20010904/DTD/svg10.dtd">
<svg version="1.0" xmlns="http://www.w3.org/2000/svg"
 width="347.000000pt" height="258.000000pt" viewBox="0 0 347.000000 258.000000"
 preserveAspectRatio="xMidYMid meet">

<g transform="translate(0.000000,258.000000) scale(0.100000,-0.100000)"
fill="#000000" stroke="none">
<path d="M1715 2304 c-22 -13 -40 -27 -40 -31 0 -11 59 -103 66 -103 3 0 20
30 37 67 29 62 30 68 14 79 -22 18 -30 16 -77 -12z"/>
<path d="M1792 2225 c-18 -36 -32 -70 -32 -76 0 -13 161 -249 169 -249 7 1
143 252 139 255 -15 11 -231 135 -237 135 -4 0 -21 -29 -39 -65z"/>
<path d="M1418 2132 c-196 -115 -217 -130 -218 -154 0 -19 36 -71 138 -197 75
-93 139 -170 142 -170 4 0 101 207 238 505 14 30 13 34 -24 87 -22 31 -43 56
-49 56 -5 0 -108 -58 -227 -127z"/>
<path d="M1741 2140 c0 -14 -55 -142 -121 -283 -66 -142 -120 -262 -120 -267
0 -4 34 -49 75 -99 41 -50 75 -97 75 -106 0 -8 6 -15 13 -15 7 0 62 -61 122
-135 61 -74 112 -135 115 -135 3 0 46 24 95 53 l90 53 62 110 c34 60 62 115
62 122 1 7 -39 70 -88 140 -48 70 -110 160 -136 199 -26 40 -51 71 -55 68 -4
-2 -62 -106 -129 -230 -113 -206 -149 -264 -139 -221 1 8 59 119 128 246 80
146 131 230 141 230 8 0 52 -55 102 -127 47 -71 110 -163 140 -205 l54 -78 51
95 52 94 0 178 -1 178 -120 69 c-66 37 -121 67 -123 65 -2 -2 -34 -61 -72
-131 -41 -76 -75 -128 -84 -128 -18 0 -176 225 -183 260 l-4 25 -2 -25z"/>
<path d="M1202 1631 l3 -285 55 -32 c30 -18 58 -33 61 -34 7 0 43 73 116 232
l35 76 -122 149 c-68 81 -129 155 -137 163 -11 12 -13 -28 -11 -269z"/>
<path d="M2282 1519 l-43 -79 31 -45 c56 -82 62 -74 58 87 l-3 117 -43 -80z"/>
<path d="M1416 1426 c-36 -79 -66 -148 -66 -154 0 -11 170 -113 179 -107 3 2
31 50 60 107 l55 104 -81 96 -80 96 -67 -142z"/>
<path d="M2177 1328 c-25 -46 -43 -85 -41 -87 2 -3 134 70 152 85 6 4 -50 84
-58 84 -5 0 -28 -37 -53 -82z"/>
<path d="M1605 1258 c-28 -51 -51 -98 -53 -103 -2 -9 39 -36 173 -111 l40 -23
58 33 58 32 -106 130 c-59 71 -110 130 -113 132 -4 1 -30 -40 -57 -90z"/>
<path d="M1150 625 l0 -115 55 0 c42 0 55 3 55 15 0 10 -11 15 -35 15 l-35 0
0 100 c0 93 -1 100 -20 100 -19 0 -20 -7 -20 -115z"/>
<path d="M1630 725 c0 -8 9 -15 20 -15 19 0 20 -7 20 -100 0 -93 1 -100 20
-100 19 0 20 7 20 100 0 93 1 100 20 100 11 0 20 7 20 15 0 12 -13 15 -60 15
-47 0 -60 -3 -60 -15z"/>
<path d="M1304 677 c-3 -8 -4 -47 -2 -88 l3 -74 50 0 50 0 0 85 0 85 -48 3
c-33 2 -49 -1 -53 -11z m76 -77 c0 -57 -1 -60 -25 -60 -24 0 -25 3 -25 60 0
57 1 60 25 60 24 0 25 -3 25 -60z"/>
<path d="M1483 683 c-9 -3 -13 -30 -13 -84 0 -75 1 -79 24 -85 14 -3 30 -3 35
1 6 3 11 -1 11 -9 0 -11 -9 -16 -30 -16 -20 0 -30 -5 -30 -15 0 -10 10 -15 34
-15 65 0 66 1 66 120 l0 108 -42 0 c-24 0 -49 -3 -55 -5z m57 -83 c0 -47 -3
-60 -15 -60 -12 0 -15 13 -15 60 0 47 3 60 15 60 12 0 15 -13 15 -60z"/>
<path d="M1790 600 c0 -83 1 -90 20 -90 18 0 20 7 20 71 0 62 2 71 20 76 11 3
20 12 20 19 0 17 -12 18 -28 2 -9 -9 -12 -9 -12 0 0 7 -9 12 -20 12 -19 0 -20
-7 -20 -90z"/>
<path d="M1921 677 c-15 -15 -14 -142 2 -155 6 -5 31 -10 55 -9 l42 0 0 87 0
87 -44 0 c-24 1 -49 -4 -55 -10z m64 -77 c0 -44 -3 -55 -17 -58 -16 -3 -18 5
-18 58 0 53 2 61 18 58 14 -3 17 -14 17 -58z"/>
<path d="M2092 678 c-18 -18 -16 -142 2 -157 8 -7 32 -11 53 -9 33 3 38 7 41
31 2 19 -1 27 -12 27 -9 0 -16 -7 -16 -15 0 -8 -9 -15 -20 -15 -18 0 -20 7
-20 60 0 53 2 60 20 60 11 0 20 -7 20 -15 0 -8 7 -15 16 -15 11 0 14 8 12 28
-3 24 -8 27 -43 30 -23 2 -46 -3 -53 -10z"/>
<path d="M2250 671 c-5 -11 -10 -43 -10 -71 0 -71 12 -90 58 -90 39 0 62 14
62 37 0 7 -9 13 -20 13 -11 0 -20 -4 -20 -10 0 -5 -9 -10 -20 -10 -15 0 -20 7
-20 25 0 23 4 25 40 25 40 0 40 0 40 38 0 48 -14 62 -62 62 -27 0 -40 -5 -48
-19z m70 -31 c0 -13 -7 -20 -20 -20 -13 0 -20 7 -20 20 0 13 7 20 20 20 13 0
20 -7 20 -20z"/>
<path d="M1103 170 c0 -30 2 -43 4 -28 2 16 2 40 0 56 -2 15 -4 2 -4 -28z"/>
<path d="M2258 203 c-2 -10 -1 -34 3 -53 6 -35 6 -35 9 -5 1 17 3 40 4 53 3
26 -10 30 -16 5z"/>
<path d="M220 165 c0 -40 2 -45 23 -44 16 1 18 2 5 6 -21 5 -24 29 -5 36 10 4
10 6 0 6 -19 1 -15 29 5 34 13 4 11 5 -5 6 -21 1 -23 -4 -23 -44z"/>
<path d="M960 185 c0 -16 6 -25 15 -25 8 0 15 -7 15 -16 0 -10 -6 -14 -15 -10
-8 3 -15 1 -15 -4 0 -6 9 -10 20 -10 15 0 20 7 20 25 0 16 -6 25 -15 25 -8 0
-15 7 -15 15 0 18 16 20 23 3 3 -8 6 -6 6 5 1 11 -6 17 -19 17 -15 0 -20 -7
-20 -25z"/>
<path d="M1650 165 c0 -40 2 -45 23 -44 16 1 18 2 5 6 -21 5 -24 29 -5 36 10
4 10 6 0 6 -19 1 -15 29 5 34 13 4 11 5 -5 6 -21 1 -23 -4 -23 -44z"/>
<path d="M2810 185 c0 -16 6 -25 15 -25 8 0 15 -7 15 -16 0 -10 -6 -14 -15
-10 -8 3 -15 1 -15 -4 0 -6 9 -10 20 -10 15 0 20 7 20 25 0 16 -6 25 -15 25
-8 0 -15 7 -15 15 0 18 16 20 23 3 3 -8 6 -6 6 5 1 11 -6 17 -19 17 -15 0 -20
-7 -20 -25z"/>
<path d="M3292 180 c0 -19 2 -27 5 -17 2 9 2 25 0 35 -3 9 -5 1 -5 -18z"/>
<path d="M292 153 c1 -37 1 -37 5 -5 2 17 8 32 13 32 5 0 11 -15 13 -32 l5
-33 -2 35 c-1 25 -6 36 -18 38 -15 3 -18 -3 -16 -35z"/>
<path d="M349 152 c5 -34 6 -35 9 -8 2 16 0 32 -5 37 -5 5 -7 -7 -4 -29z"/>
<path d="M390 145 l0 -46 21 20 c24 22 22 64 -3 69 -15 3 -18 -4 -18 -43z m30
10 c0 -14 -4 -25 -10 -25 -5 0 -10 11 -10 25 0 14 5 25 10 25 6 0 10 -11 10
-25z"/>
<path d="M460 155 c0 -29 3 -36 18 -33 11 2 17 13 17 33 0 20 -6 31 -17 33
-15 3 -18 -4 -18 -33z m30 0 c0 -14 -4 -25 -10 -25 -5 0 -10 11 -10 25 0 14 5
25 10 25 6 0 10 -11 10 -25z"/>
<path d="M556 175 c-3 -8 -1 -15 4 -15 6 0 10 7 10 15 0 8 -2 15 -4 15 -2 0
-6 -7 -10 -15z"/>
<path d="M591 174 c0 -11 3 -14 6 -6 3 7 2 16 -1 19 -3 4 -6 -2 -5 -13z"/>
<path d="M630 156 c0 -35 20 -50 35 -26 3 6 -1 7 -9 4 -9 -3 -16 -1 -16 5 0 6
7 11 16 11 21 0 14 34 -9 38 -14 3 -17 -4 -17 -32z m30 14 c0 -5 -4 -10 -10
-10 -5 0 -10 5 -10 10 0 6 5 10 10 10 6 0 10 -4 10 -10z"/>
<path d="M700 179 c0 -5 5 -7 10 -4 6 3 10 8 10 11 0 2 -4 4 -10 4 -5 0 -10
-5 -10 -11z"/>
<path d="M798 183 c7 -3 16 -2 19 1 4 3 -2 6 -13 5 -11 0 -14 -3 -6 -6z"/>
<path d="M857 183 c-13 -12 -7 -54 9 -60 13 -5 13 -7 2 -14 -10 -7 -9 -9 5 -9
14 0 17 9 17 45 0 43 -14 58 -33 38z m23 -28 c0 -14 -4 -25 -10 -25 -5 0 -10
11 -10 25 0 14 5 25 10 25 6 0 10 -11 10 -25z"/>
<path d="M1030 155 c0 -28 4 -35 20 -35 17 0 20 6 18 38 -1 36 -1 36 -5 5 -2
-18 -9 -33 -15 -33 -6 0 -8 13 -6 30 3 17 1 30 -4 30 -4 0 -8 -16 -8 -35z"/>
<path d="M1140 156 c0 -35 20 -50 35 -26 3 6 -1 7 -9 4 -9 -3 -16 -1 -16 5 0
6 7 11 16 11 21 0 14 34 -9 38 -14 3 -17 -4 -17 -32z m30 14 c0 -5 -4 -10 -10
-10 -5 0 -10 5 -10 10 0 6 5 10 10 10 6 0 10 -4 10 -10z"/>
<path d="M1210 170 c0 -12 7 -20 18 -20 14 0 15 2 2 10 -13 9 -13 11 0 20 13
8 12 10 -2 10 -11 0 -18 -8 -18 -20z"/>
<path d="M1278 183 c7 -3 16 -2 19 1 4 3 -2 6 -13 5 -11 0 -14 -3 -6 -6z"/>
<path d="M1320 155 c0 -28 4 -35 20 -35 16 0 20 7 20 35 0 28 -4 35 -20 35
-16 0 -20 -7 -20 -35z m30 0 c0 -14 -4 -25 -10 -25 -5 0 -10 11 -10 25 0 14 5
25 10 25 6 0 10 -11 10 -25z"/>
<path d="M1393 155 c0 -22 2 -30 4 -17 2 12 2 30 0 40 -3 9 -5 -1 -4 -23z"/>
<path d="M1440 155 c0 -34 20 -49 35 -25 3 6 -1 7 -9 4 -12 -5 -16 1 -16 21 0
20 4 26 16 21 8 -3 12 -2 9 4 -15 24 -35 9 -35 -25z"/>
<path d="M1510 156 c0 -35 20 -50 35 -26 3 6 -1 7 -9 4 -9 -3 -16 -1 -16 5 0
6 7 11 16 11 21 0 14 34 -9 38 -14 3 -17 -4 -17 -32z m30 14 c0 -5 -4 -10 -10
-10 -5 0 -10 5 -10 10 0 6 5 10 10 10 6 0 10 -4 10 -10z"/>
<path d="M1720 179 c0 -5 5 -7 10 -4 6 3 10 8 10 11 0 2 -4 4 -10 4 -5 0 -10
-5 -10 -11z"/>
<path d="M1770 179 c0 -5 5 -7 10 -4 6 3 10 8 10 11 0 2 -4 4 -10 4 -5 0 -10
-5 -10 -11z"/>
<path d="M1814 176 c-10 -26 0 -51 21 -51 16 0 20 7 20 30 0 33 -30 49 -41 21z
m36 -21 c0 -16 -6 -25 -15 -25 -9 0 -15 9 -15 25 0 16 6 25 15 25 9 0 15 -9
15 -25z"/>
<path d="M1890 179 c0 -5 5 -7 10 -4 6 3 10 8 10 11 0 2 -4 4 -10 4 -5 0 -10
-5 -10 -11z"/>
<path d="M1991 143 c0 -27 3 -42 6 -35 2 6 11 12 19 12 9 0 14 11 14 35 0 28
-4 35 -20 35 -17 0 -20 -6 -19 -47z m29 12 c0 -14 -4 -25 -10 -25 -5 0 -10 11
-10 25 0 14 5 25 10 25 6 0 10 -11 10 -25z"/>
<path d="M2061 153 c2 -35 2 -35 6 -8 3 16 10 33 16 37 8 5 6 8 -5 8 -14 0
-18 -8 -17 -37z"/>
<path d="M2114 176 c-9 -23 0 -51 16 -52 9 0 10 1 3 3 -20 7 -16 51 5 56 16 4
16 5 -1 6 -10 0 -20 -5 -23 -13z"/>
<path d="M2184 176 c-10 -26 0 -51 21 -51 16 0 20 7 20 30 0 33 -30 49 -41 21z
m36 -21 c0 -16 -6 -25 -15 -25 -9 0 -15 9 -15 25 0 16 6 25 15 25 9 0 15 -9
15 -25z"/>
<path d="M2303 155 c0 -22 2 -30 4 -17 2 12 2 30 0 40 -3 9 -5 -1 -4 -23z"/>
<path d="M2342 153 c1 -37 1 -37 5 -5 2 17 8 32 13 32 5 0 11 -15 13 -32 4
-32 4 -32 5 5 2 31 -1 37 -18 37 -17 0 -20 -6 -18 -37z"/>
<path d="M2417 183 c-13 -12 -7 -54 9 -60 13 -5 13 -7 2 -14 -10 -7 -9 -9 5
-9 14 0 17 8 15 48 -1 36 -2 39 -5 15 -2 -18 -9 -33 -15 -33 -6 0 -8 13 -6 30
5 32 5 33 -5 23z"/>
<path d="M2527 172 c1 -8 3 -23 3 -34 0 -27 5 -21 14 15 4 17 3 26 -3 23 -5
-3 -11 -3 -14 1 -2 5 -2 2 0 -5z"/>
<path d="M2590 155 c0 -29 3 -36 18 -33 11 2 17 13 17 33 0 20 -6 31 -17 33
-15 3 -18 -4 -18 -33z m30 0 c0 -14 -4 -25 -10 -25 -5 0 -10 11 -10 25 0 14 5
25 10 25 6 0 10 -11 10 -25z"/>
<path d="M2662 158 c-2 -32 1 -38 18 -38 17 0 20 6 18 38 -1 36 -1 36 -5 5 -2
-18 -8 -33 -13 -33 -5 0 -11 15 -13 33 -4 31 -4 31 -5 -5z"/>
<path d="M2733 155 c0 -22 2 -30 4 -17 2 12 2 30 0 40 -3 9 -5 -1 -4 -23z"/>
<path d="M2883 158 c1 -22 8 -34 20 -36 14 -3 17 3 15 35 -1 37 -1 37 -5 6 -5
-41 -20 -43 -27 -3 -6 30 -6 30 -3 -2z"/>
<path d="M2954 176 c-9 -24 0 -51 19 -54 9 -2 17 1 17 7 0 6 -7 8 -15 5 -11
-5 -15 1 -15 21 0 20 4 26 15 21 8 -3 15 -1 15 4 0 16 -30 12 -36 -4z"/>
<path d="M3020 155 c0 -34 20 -49 35 -25 3 6 -1 7 -9 4 -12 -5 -16 1 -16 21 0
20 4 26 16 21 8 -3 12 -2 9 4 -15 24 -35 9 -35 -25z"/>
<path d="M3090 156 c0 -35 20 -50 35 -26 3 6 -1 7 -9 4 -9 -3 -16 -1 -16 5 0
6 7 11 16 11 21 0 14 34 -9 38 -14 3 -17 -4 -17 -32z m30 14 c0 -5 -4 -10 -10
-10 -5 0 -10 5 -10 10 0 6 5 10 10 10 6 0 10 -4 10 -10z"/>
<path d="M3154 178 c-4 -6 0 -16 9 -23 21 -15 22 -29 1 -21 -8 3 -12 2 -9 -4
11 -18 35 -11 35 10 0 11 -7 20 -15 20 -8 0 -15 5 -15 11 0 6 7 9 15 5 8 -3
15 -1 15 4 0 14 -27 12 -36 -2z"/>
<path d="M3220 170 c0 -11 7 -20 15 -20 8 0 15 -5 15 -11 0 -6 -7 -9 -15 -5
-8 3 -15 1 -15 -4 0 -14 27 -12 36 2 4 6 -1 17 -12 25 -16 12 -17 15 -4 23 13
8 12 10 -2 10 -11 0 -18 -8 -18 -20z"/>
<path d="M530 148 c0 -9 5 -20 10 -23 13 -8 13 5 0 25 -8 13 -10 13 -10 -2z"/>
<path d="M570 130 c0 -5 5 -10 10 -10 6 0 10 5 10 10 0 6 -4 10 -10 10 -5 0
-10 -4 -10 -10z"/>
<path d="M1210 130 c0 -6 7 -10 15 -10 8 0 15 2 15 4 0 2 -7 6 -15 10 -8 3
-15 1 -15 -4z"/>
</g>
</svg>
